<?xml version="1.0" encoding="UTF-8"?>
<svg width="32" height="32" viewBox="0 0 32 32" fill="none" xmlns="http://www.w3.org/2000/svg">
  <!-- Coffee Mug -->
  <path d="M24 8H8C6.89543 8 6 8.89543 6 10V20C6 21.1046 6.89543 22 8 22H24C25.1046 22 26 21.1046 26 20V10C26 8.89543 25.1046 8 24 8Z" fill="#92400E"/>
  <!-- Mug Handle -->
  <path d="M28 12H26V18H28C29.1046 18 30 17.1046 30 16V14C30 12.8954 29.1046 12 28 12Z" fill="#92400E"/>
  <!-- Steam -->
  <path d="M12 6C12 6 11 4 13 4C15 4 14 6 14 6" stroke="#92400E" stroke-width="2" stroke-linecap="round"/>
  <path d="M16 6C16 6 15 4 17 4C19 4 18 6 18 6" stroke="#92400E" stroke-width="2" stroke-linecap="round"/>
  <path d="M20 6C20 6 19 4 21 4C23 4 22 6 22 6" stroke="#92400E" stroke-width="2" stroke-linecap="round"/>
</svg> 